<?xml version="1.0" encoding="utf-8"?>
<!-- Generator: Adobe Illustrator 21.1.0, SVG Export Plug-In . SVG Version: 6.00 Build 0)  -->
<svg version="1.1" id="Layer_1" xmlns="http://www.w3.org/2000/svg" xmlns:xlink="http://www.w3.org/1999/xlink" x="0px" y="0px"
	 viewBox="0 0 550 145" style="enable-background:new 0 0 550 145;" xml:space="preserve">
<style type="text/css">
	.st0{fill:#FFFFFF;}
</style>
<g>
	<path class="st0" d="M195.8,62.9h-0.9c0.1,0.3,0.1,0.7,0.1,1.2c0,0.5,0,0.9-0.1,1.2H194c0.1,0.3,0.1,0.7,0.1,1.2
		c0,0.5,0,0.9-0.1,1.2h-0.9c0.1,0.3,0.1,0.7,0.1,1.2c0,0.5,0,0.9-0.1,1.2h-0.9c0.1,0.3,0.1,0.7,0.1,1.2c0,0.5,0,0.9-0.1,1.2h-0.9
		c0.1,0.3,0.1,0.7,0.1,1.2c0,0.5,0,0.9-0.1,1.2h-0.9c0.1,0.3,0.1,0.7,0.1,1.2c0,0.5,0,0.9-0.1,1.2h-0.9c0.1,0.3,0.1,0.7,0.1,1.2
		c0,0.5,0,0.9-0.1,1.2h-0.9c0.1,0.3,0.1,0.7,0.1,1.2c0,0.5,0,0.9-0.1,1.2h-2.4c-0.1-0.3-0.1-0.7-0.1-1.2c0-0.5,0-0.9,0.1-1.2h0.9
		c-0.1-0.3-0.1-0.7-0.1-1.2c0-0.5,0-0.9,0.1-1.2h0.9c-0.1-0.3-0.1-0.7-0.1-1.2c0-0.5,0-0.9,0.1-1.2h0.9c-0.1-0.3-0.1-0.7-0.1-1.2
		c0-0.5,0-0.9,0.1-1.2h0.9c-0.1-0.3-0.1-0.7-0.1-1.2c0-0.5,0-0.9,0.1-1.2h0.9c-0.1-0.3-0.1-0.7-0.1-1.2c0-0.5,0-0.9,0.1-1.2h0.9
		c-0.1-0.3-0.1-0.7-0.1-1.2c0-0.5,0-0.9,0.1-1.2h0.9c-0.1-0.3-0.1-0.7-0.1-1.2c0-0.5,0-0.9,0.1-1.2h0.9c-0.1-0.3-0.1-0.7-0.1-1.2
		c0-0.5,0-0.9,0.1-1.2h2.4c0.1,0.3,0.1,0.7,0.1,1.2C195.9,62.2,195.9,62.6,195.8,62.9z"/>
	<path class="st0" d="M216.9,71.3c0,0.5,0,0.9-0.1,1.2c0.1,0.3,0.1,0.7,0.1,1.2c0,0.5,0,0.9-0.1,1.2c0.1,0.3,0.1,0.7,0.1,1.2
		c0,0.5,0,0.9-0.1,1.2c0.1,0.3,0.1,0.7,0.1,1.2c0,0.5,0,0.9-0.1,1.2h-1.2c0.1,0.3,0.1,0.7,0.1,1.2c0,0.5,0,0.9-0.1,1.2h-1.2
		c0.1,0.3,0.1,0.7,0.1,1.2c0,0.5,0,0.9-0.1,1.2h-4.8c-0.1-0.3-0.1-0.7-0.1-1.2c0-0.5,0-0.9,0.1-1.2h3.6c-0.1-0.3-0.1-0.7-0.1-1.2
		c0-0.5,0-0.9,0.1-1.2h1.2c-0.1-0.3-0.1-0.7-0.1-1.2c0-0.5,0-0.9,0.1-1.2h-1.2c-0.1-0.3-0.1-0.7-0.1-1.2c0-0.5,0-0.9,0.1-1.2h1.2
		c-0.1-0.3-0.1-0.7-0.1-1.2c0-0.5,0-0.9,0.1-1.2c-0.1-0.3-0.1-0.7-0.1-1.2c0-0.5,0-0.9,0.1-1.2h-3.9c0.1,0.3,0.1,0.7,0.1,1.2
		c0,0.5,0,0.9-0.1,1.2h-0.9c0.1,0.3,0.1,0.7,0.1,1.2c0,0.5,0,0.9-0.1,1.2h0.9c0.1,0.3,0.1,0.7,0.1,1.2c0,0.5,0,0.9-0.1,1.2h2.7
		c0.1,0.3,0.1,0.7,0.1,1.2c0,0.5,0,0.9-0.1,1.2h-3.6c-0.1-0.3-0.1-0.7-0.1-1.2c0-0.5,0-0.9,0.1-1.2h-1.5c-0.1-0.3-0.1-0.7-0.1-1.2
		c0-0.5,0-0.9,0.1-1.2h-0.9c-0.1-0.3-0.1-0.7-0.1-1.2c0-0.5,0-0.9,0.1-1.2h0.9c-0.1-0.3-0.1-0.7-0.1-1.2c0-0.5,0-0.9,0.1-1.2h1.5
		c-0.1-0.3-0.1-0.7-0.1-1.2c0-0.5,0-0.9,0.1-1.2h7.2c0.1,0.3,0.1,0.7,0.1,1.2c0,0.5,0,0.9-0.1,1.2C216.9,70.4,216.9,70.8,216.9,71.3
		z"/>
	<path class="st0" d="M237.9,71.3c0,0.5,0,0.9-0.1,1.2h-2.4c-0.1-0.3-0.1-0.7-0.1-1.2c0-0.5,0-0.9,0.1-1.2h-2.1
		c0.1,0.3,0.1,0.7,0.1,1.2c0,0.5,0,0.9-0.1,1.2h-0.9c0.1,0.3,0.1,0.7,0.1,1.2c0,0.5,0,0.9-0.1,1.2c0.1,0.3,0.1,0.7,0.1,1.2
		c0,0.5,0,0.9-0.1,1.2h1.8c0.1,0.3,0.1,0.7,0.1,1.2c0,0.5,0,0.9-0.1,1.2h-6c-0.1-0.3-0.1-0.7-0.1-1.2c0-0.5,0-0.9,0.1-1.2h1.8
		c-0.1-0.3-0.1-0.7-0.1-1.2c0-0.5,0-0.9,0.1-1.2c-0.1-0.3-0.1-0.7-0.1-1.2c0-0.5,0-0.9,0.1-1.2c-0.1-0.3-0.1-0.7-0.1-1.2
		c0-0.5,0-0.9,0.1-1.2h-1.8c-0.1-0.3-0.1-0.7-0.1-1.2c0-0.5,0-0.9,0.1-1.2h3c0.1,0.3,0.1,0.7,0.1,1.2c0,0.5,0,0.9-0.1,1.2h1.2
		c-0.1-0.3-0.1-0.7-0.1-1.2c0-0.5,0-0.9,0.1-1.2h4.5c0.1,0.3,0.1,0.7,0.1,1.2c0,0.5,0,0.9-0.1,1.2h0.9
		C237.9,70.4,237.9,70.8,237.9,71.3z"/>
	<path class="st0" d="M258.8,72.5c0.1,0.3,0.1,0.7,0.1,1.2c0,0.5,0,0.9-0.1,1.2h-6.3c0.1,0.3,0.1,0.7,0.1,1.2c0,0.5,0,0.9-0.1,1.2
		h5.1c0.1,0.3,0.1,0.7,0.1,1.2c0,0.5,0,0.9-0.1,1.2h-6c-0.1-0.3-0.1-0.7-0.1-1.2c0-0.5,0-0.9,0.1-1.2h-1.5c-0.1-0.3-0.1-0.7-0.1-1.2
		c0-0.5,0-0.9,0.1-1.2h-0.9c-0.1-0.3-0.1-0.7-0.1-1.2c0-0.5,0-0.9,0.1-1.2h0.9c-0.1-0.3-0.1-0.7-0.1-1.2c0-0.5,0-0.9,0.1-1.2h1.5
		c-0.1-0.3-0.1-0.7-0.1-1.2c0-0.5,0-0.9,0.1-1.2h6c0.1,0.3,0.1,0.7,0.1,1.2c0,0.5,0,0.9-0.1,1.2h1.2c0.1,0.3,0.1,0.7,0.1,1.2
		C258.9,71.8,258.9,72.2,258.8,72.5z M256.3,71.3c0-0.5,0-0.9,0.1-1.2h-3.9c0.1,0.3,0.1,0.7,0.1,1.2c0,0.5,0,0.9-0.1,1.2h3.9
		C256.3,72.2,256.3,71.8,256.3,71.3z"/>
	<path class="st0" d="M279.8,70.1h-0.9c0.1,0.3,0.1,0.7,0.1,1.2c0,0.5,0,0.9-0.1,1.2H278c0.1,0.3,0.1,0.7,0.1,1.2
		c0,0.5,0,0.9-0.1,1.2h-0.6c0.1,0.3,0.1,0.7,0.1,1.2c0,0.5,0,0.9-0.1,1.2h-0.9c0.1,0.3,0.1,0.7,0.1,1.2c0,0.5,0,0.9-0.1,1.2h-0.6
		c0.1,0.3,0.1,0.7,0.1,1.2c0,0.5,0,0.9-0.1,1.2h-1.2c0.1,0.3,0.1,0.7,0.1,1.2c0,0.5,0,0.9-0.1,1.2h-3.6c-0.1-0.3-0.1-0.7-0.1-1.2
		c0-0.5,0-0.9,0.1-1.2h2.4c-0.1-0.3-0.1-0.7-0.1-1.2c0-0.5,0-0.9,0.1-1.2c-0.1-0.3-0.1-0.7-0.1-1.2c0-0.5,0-0.9,0.1-1.2h-1.2
		c-0.1-0.3-0.1-0.7-0.1-1.2c0-0.5,0-0.9,0.1-1.2h-0.6c-0.1-0.3-0.1-0.7-0.1-1.2c0-0.5,0-0.9,0.1-1.2h-0.9c-0.1-0.3-0.1-0.7-0.1-1.2
		c0-0.5,0-0.9,0.1-1.2h-0.9c-0.1-0.3-0.1-0.7-0.1-1.2c0-0.5,0-0.9,0.1-1.2h2.4c0.1,0.3,0.1,0.7,0.1,1.2c0,0.5,0,0.9-0.1,1.2h0.9
		c0.1,0.3,0.1,0.7,0.1,1.2c0,0.5,0,0.9-0.1,1.2h0.9c0.1,0.3,0.1,0.7,0.1,1.2c0,0.5,0,0.9-0.1,1.2c0.1,0.3,0.1,0.7,0.1,1.2
		c0,0.5,0,0.9-0.1,1.2h0.9c-0.1-0.3-0.1-0.7-0.1-1.2c0-0.5,0-0.9,0.1-1.2h0.6c-0.1-0.3-0.1-0.7-0.1-1.2c0-0.5,0-0.9,0.1-1.2h0.9
		c-0.1-0.3-0.1-0.7-0.1-1.2c0-0.5,0-0.9,0.1-1.2h0.9c-0.1-0.3-0.1-0.7-0.1-1.2c0-0.5,0-0.9,0.1-1.2h2.4c0.1,0.3,0.1,0.7,0.1,1.2
		C279.9,69.4,279.9,69.8,279.8,70.1z"/>
	<path class="st0" d="M300.2,77.3H299c0.1,0.3,0.1,0.7,0.1,1.2c0,0.5,0,0.9-0.1,1.2h-6.6c-0.1-0.3-0.1-0.7-0.1-1.2
		c0-0.5,0-0.9,0.1-1.2h5.4c-0.1-0.3-0.1-0.7-0.1-1.2c0-0.5,0-0.9,0.1-1.2H293c-0.1-0.3-0.1-0.7-0.1-1.2c0-0.5,0-0.9,0.1-1.2h-1.2
		c-0.1-0.3-0.1-0.7-0.1-1.2c0-0.5,0-0.9,0.1-1.2h1.2c-0.1-0.3-0.1-0.7-0.1-1.2c0-0.5,0-0.9,0.1-1.2h6.6c0.1,0.3,0.1,0.7,0.1,1.2
		c0,0.5,0,0.9-0.1,1.2h-5.4c0.1,0.3,0.1,0.7,0.1,1.2c0,0.5,0,0.9-0.1,1.2h4.8c0.1,0.3,0.1,0.7,0.1,1.2c0,0.5,0,0.9-0.1,1.2h1.2
		c0.1,0.3,0.1,0.7,0.1,1.2C300.3,76.6,300.3,77,300.2,77.3z"/>
	<path class="st0" d="M320.7,78.5c0,0.5,0,0.9-0.1,1.2h-7.2c-0.1-0.3-0.1-0.7-0.1-1.2c0-0.5,0-0.9,0.1-1.2h2.4
		c-0.1-0.3-0.1-0.7-0.1-1.2c0-0.5,0-0.9,0.1-1.2c-0.1-0.3-0.1-0.7-0.1-1.2c0-0.5,0-0.9,0.1-1.2c-0.1-0.3-0.1-0.7-0.1-1.2
		c0-0.5,0-0.9,0.1-1.2H314c-0.1-0.3-0.1-0.7-0.1-1.2c0-0.5,0-0.9,0.1-1.2h4.2c0.1,0.3,0.1,0.7,0.1,1.2c0,0.5,0,0.9-0.1,1.2
		c0.1,0.3,0.1,0.7,0.1,1.2c0,0.5,0,0.9-0.1,1.2c0.1,0.3,0.1,0.7,0.1,1.2c0,0.5,0,0.9-0.1,1.2c0.1,0.3,0.1,0.7,0.1,1.2
		c0,0.5,0,0.9-0.1,1.2h2.4C320.7,77.6,320.7,78,320.7,78.5z M315.8,65.3c-0.1-0.3-0.1-0.7-0.1-1.2c0-0.5,0-0.9,0.1-1.2h2.4
		c0.1,0.3,0.1,0.7,0.1,1.2c0,0.5,0,0.9-0.1,1.2H315.8z"/>
	<path class="st0" d="M341.6,77.3c0.1,0.3,0.1,0.7,0.1,1.2c0,0.5,0,0.9-0.1,1.2h-4.8c-0.1-0.3-0.1-0.7-0.1-1.2c0-0.5,0-0.9,0.1-1.2
		h-1.2c-0.1-0.3-0.1-0.7-0.1-1.2c0-0.5,0-0.9,0.1-1.2c-0.1-0.3-0.1-0.7-0.1-1.2c0-0.5,0-0.9,0.1-1.2c-0.1-0.3-0.1-0.7-0.1-1.2
		c0-0.5,0-0.9,0.1-1.2h-2.4c-0.1-0.3-0.1-0.7-0.1-1.2c0-0.5,0-0.9,0.1-1.2h2.4c-0.1-0.3-0.1-0.7-0.1-1.2c0-0.5,0-0.9,0.1-1.2
		c-0.1-0.3-0.1-0.7-0.1-1.2c0-0.5,0-0.9,0.1-1.2h2.4c0.1,0.3,0.1,0.7,0.1,1.2c0,0.5,0,0.9-0.1,1.2c0.1,0.3,0.1,0.7,0.1,1.2
		c0,0.5,0,0.9-0.1,1.2h3.6c0.1,0.3,0.1,0.7,0.1,1.2c0,0.5,0,0.9-0.1,1.2H338c0.1,0.3,0.1,0.7,0.1,1.2c0,0.5,0,0.9-0.1,1.2
		c0.1,0.3,0.1,0.7,0.1,1.2c0,0.5,0,0.9-0.1,1.2c0.1,0.3,0.1,0.7,0.1,1.2c0,0.5,0,0.9-0.1,1.2H341.6z"/>
	<path class="st0" d="M363.8,72.5c0.1,0.3,0.1,0.7,0.1,1.2c0,0.5,0,0.9-0.1,1.2h-6.3c0.1,0.3,0.1,0.7,0.1,1.2c0,0.5,0,0.9-0.1,1.2
		h5.1c0.1,0.3,0.1,0.7,0.1,1.2c0,0.5,0,0.9-0.1,1.2h-6c-0.1-0.3-0.1-0.7-0.1-1.2c0-0.5,0-0.9,0.1-1.2h-1.5c-0.1-0.3-0.1-0.7-0.1-1.2
		c0-0.5,0-0.9,0.1-1.2h-0.9c-0.1-0.3-0.1-0.7-0.1-1.2c0-0.5,0-0.9,0.1-1.2h0.9c-0.1-0.3-0.1-0.7-0.1-1.2c0-0.5,0-0.9,0.1-1.2h1.5
		c-0.1-0.3-0.1-0.7-0.1-1.2c0-0.5,0-0.9,0.1-1.2h6c0.1,0.3,0.1,0.7,0.1,1.2c0,0.5,0,0.9-0.1,1.2h1.2c0.1,0.3,0.1,0.7,0.1,1.2
		C363.9,71.8,363.9,72.2,363.8,72.5z M361.3,71.3c0-0.5,0-0.9,0.1-1.2h-3.9c0.1,0.3,0.1,0.7,0.1,1.2c0,0.5,0,0.9-0.1,1.2h3.9
		C361.3,72.2,361.3,71.8,361.3,71.3z"/>
</g>
</svg>
